<svg xmlns="http://www.w3.org/2000/svg" aria-hidden="true" style="position:absolute;width:0;height:0;overflow:hidden">
  <defs>
    <symbol id="icon-menu" viewBox="0 0 32 32">
      <path stroke-linecap="round" stroke-linejoin="round" stroke-width="2.133" d="M28 16H12m16 8H9.333M28 8H4"/>
    </symbol>
    <symbol id="icon-close" viewBox="0 0 32 32">
      <path d="M21.421 11.993a.992.992 0 0 0 .305-.71 1.005 1.005 0 0 0-.62-.935 1.01 1.01 0 0 0-.773.006.996.996 0 0 0-.325.224L16 14.585l-4.007-4.007a1.013 1.013 0 0 0-.714-.318.993.993 0 0 0-.725.293.992.992 0 0 0-.293.725 1.001 1.001 0 0 0 .318.714L14.583 16l-4.007 4.007a.996.996 0 0 0 .025 1.388 1.002 1.002 0 0 0 1.388.025l4.009-4.007 4.007 4.008a.996.996 0 0 0 1.388-.025 1.002 1.002 0 0 0 .025-1.388L17.414 16l4.005-4.007z"/>
    </symbol>
    <symbol id="icon-mail" viewBox="0 0 10 10">
      <path d="M9.99651 8.30093C10.0344 8.19849 5.68175 4.91188 5.68175 4.91188C5.13683 4.50976 4.85022 4.50343 4.31136 4.91188C4.31136 4.91188 -0.0349707 8.19583 0.00161133 8.29687L0.000732422 8.29761C0.00118164 8.29849 0.0019043 8.29909 0.00250977 8.29989C0.0393701 8.40036 0.0929871 8.49385 0.161084 8.5764C0.189854 8.61128 0.224521 8.6405 0.257861 8.67087L0.25624 8.67212C0.258896 8.67448 0.262432 8.67558 0.265088 8.67794C0.406396 8.80399 0.5846 8.88564 0.782568 8.90894C0.785674 8.90931 0.788174 8.91093 0.791279 8.9113H0.803232C0.83333 8.91417 0.861943 8.9214 0.892764 8.9214H9.10997C9.5146 8.9214 9.85741 8.66694 9.99358 8.31024C9.9952 8.30759 9.9977 8.30567 9.99919 8.30294L9.99651 8.30093Z" fill="#96A9B2"/>
      <path d="M5.00265 4.53458L0.0238037 8.26872V2.9787C0.0238037 2.46308 0.441714 2.04517 0.957339 2.04517H9.04796C9.56359 2.04517 9.9815 2.46308 9.9815 2.9787V8.26872L5.00265 4.53458Z" fill="#B9C5C6"/>
      <path d="M0.0817871 2.65414L4.33267 5.99299C4.86919 6.38891 5.15138 6.39516 5.68194 5.99299L9.92614 2.65943C9.85251 2.52596 9.74228 2.42051 9.6162 2.33643L9.67458 2.29068C9.5321 2.16098 9.34997 2.07689 9.1478 2.05518L0.857666 2.05547C0.656065 2.07689 0.473643 2.16127 0.331455 2.29068L0.389404 2.33586C0.264795 2.41877 0.155576 2.5224 0.0817871 2.65414Z" fill="#EDECE6"/>
      <path d="M0.080376 2.66121C0.0430517 2.76209 4.32866 5.99803 4.32866 5.99803C4.86518 6.39394 5.14737 6.40019 5.67794 5.99803C5.67794 5.99803 9.95729 2.76471 9.92126 2.66521L9.92214 2.66449C9.92171 2.66361 9.92098 2.66305 9.9204 2.66225C9.88412 2.56332 9.83133 2.47127 9.76427 2.39C9.73595 2.35564 9.7018 2.32689 9.66899 2.29697L9.67059 2.29574C9.66798 2.29342 9.6645 2.29232 9.66188 2.29C9.52274 2.1659 9.34729 2.08551 9.15239 2.06256C9.14934 2.06219 9.14686 2.06061 9.14382 2.06023H9.13206C9.10243 2.0574 9.07425 2.05029 9.04389 2.05029H0.953267C0.554868 2.05029 0.217329 2.30084 0.0832861 2.65203C0.0816846 2.65465 0.0792236 2.65654 0.0777588 2.65922L0.080376 2.66121Z" fill="#DCE2E2"/>
      <path d="M5.6914 3.02029H4.93687C4.90499 3.02029 4.87441 3.03296 4.85187 3.0555C4.82932 3.07805 4.81666 3.10862 4.81666 3.14051V3.56477C4.81666 3.59665 4.82932 3.62723 4.85187 3.64977C4.87441 3.67231 4.90499 3.68498 4.93687 3.68498H5.55044C5.58233 3.68498 5.6129 3.69765 5.63545 3.72019C5.65799 3.74274 5.67066 3.77331 5.67066 3.8052V4.03207C5.67066 4.06395 5.65799 4.09453 5.63545 4.11708C5.6129 4.13962 5.58233 4.15229 5.55044 4.15229H4.93687C4.90499 4.15229 4.87441 4.16495 4.85187 4.1875C4.82932 4.21004 4.81666 4.24062 4.81666 4.2725V4.73301C4.81666 4.76489 4.82932 4.79547 4.85187 4.81801C4.87441 4.84056 4.90499 4.85322 4.93687 4.85322H5.74382C5.77571 4.85322 5.80628 4.86589 5.82883 4.88843C5.85137 4.91098 5.86404 4.94155 5.86404 4.97344V5.21643C5.86404 5.24831 5.85137 5.27889 5.82883 5.30143C5.80628 5.32398 5.77571 5.33664 5.74382 5.33664H4.26414C4.23225 5.33664 4.20168 5.32398 4.17913 5.30143C4.15659 5.27889 4.14392 5.24831 4.14392 5.21643V2.66514C4.14392 2.63325 4.15659 2.60268 4.17913 2.58013C4.20168 2.55759 4.23225 2.54492 4.26414 2.54492H5.72527C5.79849 2.54492 5.8547 2.6098 5.84425 2.68229L5.81041 2.91721C5.80628 2.94583 5.79198 2.972 5.77012 2.99094C5.74827 3.00987 5.72032 3.02029 5.6914 3.02029Z" fill="#597B91"/>
    </symbol>
  </defs>
</svg>
